<?xml version="1.0" encoding="UTF-8" standalone="no"?>
<svg
   xmlns:dc="http://purl.org/dc/elements/1.1/"
   xmlns:cc="http://creativecommons.org/ns#"
   xmlns:rdf="http://www.w3.org/1999/02/22-rdf-syntax-ns#"
   xmlns:svg="http://www.w3.org/2000/svg"
   xmlns="http://www.w3.org/2000/svg"
   viewBox="0 0 321.25333 124.72"
   height="124.72"
   width="321.25333"
   xml:space="preserve"
   id="svg2"
   version="1.1"><metadata
     id="metadata8"><rdf:RDF><cc:Work
         rdf:about=""><dc:format>image/svg+xml</dc:format><dc:type
           rdf:resource="http://purl.org/dc/dcmitype/StillImage" /></cc:Work></rdf:RDF></metadata><defs
     id="defs6"><clipPath
       id="clipPath20"
       clipPathUnits="userSpaceOnUse"><path
         id="path18"
         d="m 926.68,440.43 c -44.035,0.925 -94.008,-6.883 -94.008,-49.992 0,-26.59 17.41,-38.504 37.601,-38.504 29.34,0 48.145,18.347 54.571,37.136 1.379,4.59 1.836,9.172 1.836,12.832 z m 38.965,-60.071 c 0,-19.246 0.925,-38.062 3.218,-53.183 h -36.226 l -3.207,27.953 h -1.379 c -12.387,-17.414 -36.227,-32.992 -67.875,-32.992 -44.934,0 -67.863,31.621 -67.863,63.722 0,53.653 47.687,83.008 133.449,82.547 v 4.59 c 0,17.871 -5.055,51.359 -50.449,50.899 -21.094,0 -42.641,-5.965 -58.239,-16.504 l -9.179,27.05 c 18.343,11.465 45.41,19.258 73.375,19.258 67.875,0 84.375,-46.308 84.375,-90.332 z" /></clipPath><linearGradient
       id="linearGradient26"
       spreadMethod="pad"
       gradientTransform="matrix(-2.08e-5,-475.236,-475.236,2.08e-5,880.591,614.858)"
       gradientUnits="userSpaceOnUse"
       y2="0"
       x2="1"
       y1="0"
       x1="0"><stop
         id="stop22"
         offset="0"
         style="stop-opacity:1;stop-color:#329a3d" /><stop
         id="stop24"
         offset="1"
         style="stop-opacity:1;stop-color:#254b22" /></linearGradient><clipPath
       id="clipPath36"
       clipPathUnits="userSpaceOnUse"><path
         id="path34"
         d="m 1180.26,461.531 c 0,6.875 -0.46,12.832 -2.29,17.883 -7.34,23.84 -26.59,43.106 -56.4,43.106 -38.53,0 -66.04,-32.571 -66.04,-83.918 0,-43.575 22.46,-79.793 65.58,-79.793 25.2,0 47.68,15.593 55.94,41.269 2.3,6.883 3.21,14.676 3.21,21.551 z m 40.37,-101.804 c 0,-51.368 -10.57,-82.082 -31.66,-101.805 -22.01,-19.731 -53.19,-26.606 -81.16,-26.606 -26.59,0 -55.95,6.426 -73.84,18.34 l 10.1,31.192 c 14.67,-9.629 37.6,-17.887 65.11,-17.887 41.27,0 71.54,21.559 71.54,77.965 v 24.308 h -0.92 c -11.92,-20.644 -36.22,-37.14 -70.62,-37.14 -55.03,0 -94.46,46.758 -94.46,108.203 0,75.215 49.07,117.402 100.42,117.402 38.52,0 59.16,-19.726 69.26,-38.066 h 0.91 l 1.38,33.476 h 35.76 c -1.38,-15.586 -1.82,-33.925 -1.82,-60.523 z" /></clipPath><linearGradient
       id="linearGradient42"
       spreadMethod="pad"
       gradientTransform="matrix(-2.08e-5,-475.27,-475.27,2.08e-5,1118.58,614.863)"
       gradientUnits="userSpaceOnUse"
       y2="0"
       x2="1"
       y1="0"
       x1="0"><stop
         id="stop38"
         offset="0"
         style="stop-opacity:1;stop-color:#329a3d" /><stop
         id="stop40"
         offset="1"
         style="stop-opacity:1;stop-color:#254b22" /></linearGradient><clipPath
       id="clipPath52"
       clipPathUnits="userSpaceOnUse"><path
         id="path50"
         d="m 1284.36,479.871 c 0,26.133 -0.46,48.613 -1.84,69.238 h 35.32 l 1.84,-44.023 h 1.36 c 10.08,29.805 34.86,48.613 61.91,48.613 4.12,0 7.34,-0.445 11.01,-0.918 v -38.066 c -4.13,0.918 -8.25,0.918 -13.76,0.918 -28.43,0 -48.61,-21.082 -54.11,-51.356 -0.92,-5.5 -1.38,-12.375 -1.38,-18.8 V 327.176 h -40.35 z" /></clipPath><linearGradient
       id="linearGradient58"
       spreadMethod="pad"
       gradientTransform="matrix(-2.08e-5,-475.243,-475.243,2.08e-5,1338.24,614.858)"
       gradientUnits="userSpaceOnUse"
       y2="0"
       x2="1"
       y1="0"
       x1="0"><stop
         id="stop54"
         offset="0"
         style="stop-opacity:1;stop-color:#329a3d" /><stop
         id="stop56"
         offset="1"
         style="stop-opacity:1;stop-color:#254b22" /></linearGradient><clipPath
       id="clipPath68"
       clipPathUnits="userSpaceOnUse"><path
         id="path66"
         d="m 1436.13,327.176 v 221.933 h 40.36 V 327.176 Z m 44.95,284.297 c 0,-13.75 -9.62,-24.754 -25.66,-24.754 -14.68,0 -24.32,11.004 -24.32,24.754 0,13.769 10.1,25.215 25.22,25.215 14.68,0 24.76,-10.997 24.76,-25.215 z" /></clipPath><linearGradient
       id="linearGradient74"
       spreadMethod="pad"
       gradientTransform="matrix(-2.08e-5,-475.232,-475.232,2.08e-5,1456.09,614.853)"
       gradientUnits="userSpaceOnUse"
       y2="0"
       x2="1"
       y1="0"
       x1="0"><stop
         id="stop70"
         offset="0"
         style="stop-opacity:1;stop-color:#329a3d" /><stop
         id="stop72"
         offset="1"
         style="stop-opacity:1;stop-color:#254b22" /></linearGradient><clipPath
       id="clipPath84"
       clipPathUnits="userSpaceOnUse"><path
         id="path82"
         d="m 1701.65,334.969 c -10.54,-5.059 -33.94,-12.832 -63.72,-12.832 -66.96,0 -110.52,45.39 -110.52,113.254 0,68.328 46.77,118.308 119.22,118.308 23.84,0 44.94,-5.957 55.94,-11.922 l -9.16,-30.722 c -9.63,5.039 -24.78,10.535 -46.78,10.535 -50.92,0 -78.41,-38.043 -78.41,-83.906 0,-51.368 33,-83.008 77.01,-83.008 22.94,0 38.09,5.508 49.55,10.558 z" /></clipPath><linearGradient
       id="linearGradient90"
       spreadMethod="pad"
       gradientTransform="matrix(-5.8664,-704.05,-704.05,5.8664,1619.36,963.877)"
       gradientUnits="userSpaceOnUse"
       y2="0"
       x2="1"
       y1="0"
       x1="0"><stop
         id="stop86"
         offset="0"
         style="stop-opacity:1;stop-color:#bcde15" /><stop
         id="stop88"
         offset="1"
         style="stop-opacity:1;stop-color:#df1d25" /></linearGradient><clipPath
       id="clipPath100"
       clipPathUnits="userSpaceOnUse"><path
         id="path98"
         d="m 1865.81,440.43 c -44.01,0.925 -93.99,-6.883 -93.99,-49.992 0,-26.59 17.41,-38.504 37.6,-38.504 29.33,0 48.15,18.347 54.58,37.136 1.35,4.59 1.81,9.172 1.81,12.832 z m 38.98,-60.071 c 0,-19.246 0.94,-38.062 3.24,-53.183 h -36.23 l -3.24,27.953 h -1.37 c -12.38,-17.414 -36.2,-32.992 -67.85,-32.992 -44.94,0 -67.88,31.621 -67.88,63.722 0,53.653 47.69,83.008 133.44,82.547 v 4.59 c 0,17.871 -5.05,51.359 -50.44,50.899 -21.1,0 -42.64,-5.965 -58.22,-16.504 l -9.17,27.05 c 18.33,11.465 45.39,19.258 73.35,19.258 67.87,0 84.37,-46.308 84.37,-90.332 z" /></clipPath><linearGradient
       id="linearGradient106"
       spreadMethod="pad"
       gradientTransform="matrix(-5.86624,-704.03,-704.03,5.86624,1824.79,962.153)"
       gradientUnits="userSpaceOnUse"
       y2="0"
       x2="1"
       y1="0"
       x1="0"><stop
         id="stop102"
         offset="0"
         style="stop-opacity:1;stop-color:#bcde15" /><stop
         id="stop104"
         offset="1"
         style="stop-opacity:1;stop-color:#df1d25" /></linearGradient><clipPath
       id="clipPath116"
       clipPathUnits="userSpaceOnUse"><path
         id="path114"
         d="m 1969.92,489.031 c 0,23.399 -0.92,41.739 -1.83,60.078 h 35.31 l 1.83,-36.23 h 1.37 c 12.4,21.094 33.03,40.82 70.17,40.82 29.81,0 52.72,-18.34 62.37,-44.48 h 0.92 c 6.85,12.84 16.04,22.011 25.2,28.894 13.32,10.078 27.53,15.586 48.64,15.586 29.78,0 73.37,-19.258 73.37,-96.308 V 327.176 h -39.47 v 125.176 c 0,43.109 -16.03,68.32 -48.14,68.32 -23.37,0 -40.81,-16.953 -48.15,-36.219 -1.82,-5.957 -3.2,-12.844 -3.2,-20.176 V 327.176 h -39.43 v 132.969 c 0,35.316 -15.61,60.527 -46.32,60.527 -24.77,0 -43.56,-20.176 -50,-40.34 -2.29,-5.508 -3.2,-12.844 -3.2,-19.727 V 327.176 h -39.44 z" /></clipPath><linearGradient
       id="linearGradient122"
       spreadMethod="pad"
       gradientTransform="matrix(-5.86646,-704.057,-704.057,5.86646,2132.02,959.614)"
       gradientUnits="userSpaceOnUse"
       y2="0"
       x2="1"
       y1="0"
       x1="0"><stop
         id="stop118"
         offset="0"
         style="stop-opacity:1;stop-color:#bcde15" /><stop
         id="stop120"
         offset="1"
         style="stop-opacity:1;stop-color:#df1d25" /></linearGradient><clipPath
       id="clipPath132"
       clipPathUnits="userSpaceOnUse"><path
         id="path130"
         d="m 179.336,377.375 c -4.801,16.637 -7.992,33.953 -9.418,51.902 -5.172,65.125 14.125,126.571 50.145,175.282 L 404.547,509.48 Z" /></clipPath><linearGradient
       id="linearGradient138"
       spreadMethod="pad"
       gradientTransform="matrix(-67.7241,153.922,153.922,67.7241,291.26,444.98)"
       gradientUnits="userSpaceOnUse"
       y2="0"
       x2="1"
       y1="0"
       x1="0"><stop
         id="stop134"
         offset="0"
         style="stop-opacity:1;stop-color:#7eaa29" /><stop
         id="stop136"
         offset="1"
         style="stop-opacity:1;stop-color:#a19f20" /></linearGradient><clipPath
       id="clipPath148"
       clipPathUnits="userSpaceOnUse"><path
         id="path146"
         d="m 247.336,634.227 c 12.129,12.324 25.687,23.613 40.602,33.632 54.257,36.426 117.261,49.739 177.378,42.207 l 7.672,-208.964 z" /></clipPath><linearGradient
       id="linearGradient154"
       spreadMethod="pad"
       gradientTransform="matrix(-337.638,651.159,651.159,337.638,614.414,174.404)"
       gradientUnits="userSpaceOnUse"
       y2="0"
       x2="1"
       y1="0"
       x1="0"><stop
         id="stop150"
         offset="0"
         style="stop-opacity:1;stop-color:#bcde15" /><stop
         id="stop152"
         offset="1"
         style="stop-opacity:1;stop-color:#ed1f24" /></linearGradient><clipPath
       id="clipPath164"
       clipPathUnits="userSpaceOnUse"><path
         id="path162"
         d="m 501.484,702.969 c 16.754,-4.344 33.313,-10.442 49.45,-18.352 58.671,-28.75 101.703,-76.656 125.242,-132.5 L 502.305,443.848 Z" /></clipPath><linearGradient
       id="linearGradient170"
       spreadMethod="pad"
       gradientTransform="matrix(-102.331,183.601,183.601,102.331,587.744,502.275)"
       gradientUnits="userSpaceOnUse"
       y2="0"
       x2="1"
       y1="0"
       x1="0"><stop
         id="stop166"
         offset="0"
         style="stop-opacity:1;stop-color:#7eaa29" /><stop
         id="stop168"
         offset="1"
         style="stop-opacity:1;stop-color:#d5d310" /></linearGradient><clipPath
       id="clipPath180"
       clipPathUnits="userSpaceOnUse"><path
         id="path178"
         d="m 688.598,514.52 c 4.5,-16.719 7.343,-34.122 8.433,-52.071 3.914,-65.215 -16.523,-126.277 -53.453,-174.297 l -187.074,96.125 z" /></clipPath><linearGradient
       id="linearGradient186"
       spreadMethod="pad"
       gradientTransform="matrix(-112.261,142.463,142.463,112.261,678.154,315.4)"
       gradientUnits="userSpaceOnUse"
       y2="0"
       x2="1"
       y1="0"
       x1="0"><stop
         id="stop182"
         offset="0"
         style="stop-opacity:1;stop-color:#399a3b" /><stop
         id="stop184"
         offset="1"
         style="stop-opacity:1;stop-color:#77b12c" /></linearGradient><clipPath
       id="clipPath196"
       clipPathUnits="userSpaceOnUse"><path
         id="path194"
         d="M 621.5,261.922 C 609.438,249.531 595.93,238.145 581.07,228.066 527.031,191.328 464.109,177.684 403.945,184.891 l -9.164,205.89 z" /></clipPath><linearGradient
       id="linearGradient202"
       spreadMethod="pad"
       gradientTransform="matrix(169.355,-169.355,-169.355,-169.355,370.073,366.054)"
       gradientUnits="userSpaceOnUse"
       y2="0"
       x2="1"
       y1="0"
       x1="0"><stop
         id="stop198"
         offset="0"
         style="stop-opacity:1;stop-color:#329a3d" /><stop
         id="stop200"
         offset="1"
         style="stop-opacity:1;stop-color:#254b22" /></linearGradient><clipPath
       id="clipPath212"
       clipPathUnits="userSpaceOnUse"><path
         id="path210"
         d="m 365.375,192.137 c -16.762,4.297 -33.344,10.332 -49.508,18.183 -58.765,28.547 -101.965,76.309 -125.687,132.055 l 175.484,115.918 z" /></clipPath><linearGradient
       id="linearGradient218"
       spreadMethod="pad"
       gradientTransform="matrix(-83.112,204.705,204.705,83.112,361.357,194.834)"
       gradientUnits="userSpaceOnUse"
       y2="0"
       x2="1"
       y1="0"
       x1="0"><stop
         id="stop214"
         offset="0"
         style="stop-opacity:1;stop-color:#358d39" /><stop
         id="stop216"
         offset="1"
         style="stop-opacity:1;stop-color:#7cb22a" /></linearGradient></defs><g
     transform="matrix(1.3333333,0,0,-1.3333333,0,124.72)"
     id="g10"><g
       transform="scale(0.1)"
       id="g12"><g
         id="g14"><g
           clip-path="url(#clipPath20)"
           id="g16"><path
             id="path28"
             style="fill:url(#linearGradient26);fill-opacity:1;fill-rule:nonzero;stroke:none"
             d="m 926.68,440.43 c -44.035,0.925 -94.008,-6.883 -94.008,-49.992 0,-26.59 17.41,-38.504 37.601,-38.504 29.34,0 48.145,18.347 54.571,37.136 1.379,4.59 1.836,9.172 1.836,12.832 z m 38.965,-60.071 c 0,-19.246 0.925,-38.062 3.218,-53.183 h -36.226 l -3.207,27.953 h -1.379 c -12.387,-17.414 -36.227,-32.992 -67.875,-32.992 -44.934,0 -67.863,31.621 -67.863,63.722 0,53.653 47.687,83.008 133.449,82.547 v 4.59 c 0,17.871 -5.055,51.359 -50.449,50.899 -21.094,0 -42.641,-5.965 -58.239,-16.504 l -9.179,27.05 c 18.343,11.465 45.41,19.258 73.375,19.258 67.875,0 84.375,-46.308 84.375,-90.332 v -83.008" /></g></g><g
         id="g30"><g
           clip-path="url(#clipPath36)"
           id="g32"><path
             id="path44"
             style="fill:url(#linearGradient42);fill-opacity:1;fill-rule:nonzero;stroke:none"
             d="m 1180.26,461.531 c 0,6.875 -0.46,12.832 -2.29,17.883 -7.34,23.84 -26.59,43.106 -56.4,43.106 -38.53,0 -66.04,-32.571 -66.04,-83.918 0,-43.575 22.46,-79.793 65.58,-79.793 25.2,0 47.68,15.593 55.94,41.269 2.3,6.883 3.21,14.676 3.21,21.551 z m 40.37,-101.804 c 0,-51.368 -10.57,-82.082 -31.66,-101.805 -22.01,-19.731 -53.19,-26.606 -81.16,-26.606 -26.59,0 -55.95,6.426 -73.84,18.34 l 10.1,31.192 c 14.67,-9.629 37.6,-17.887 65.11,-17.887 41.27,0 71.54,21.559 71.54,77.965 v 24.308 h -0.92 c -11.92,-20.644 -36.22,-37.14 -70.62,-37.14 -55.03,0 -94.46,46.758 -94.46,108.203 0,75.215 49.07,117.402 100.42,117.402 38.52,0 59.16,-19.726 69.26,-38.066 h 0.91 l 1.38,33.476 h 35.76 c -1.38,-15.586 -1.82,-33.925 -1.82,-60.523 V 359.727" /></g></g><g
         id="g46"><g
           clip-path="url(#clipPath52)"
           id="g48"><path
             id="path60"
             style="fill:url(#linearGradient58);fill-opacity:1;fill-rule:nonzero;stroke:none"
             d="m 1284.36,479.871 c 0,26.133 -0.46,48.613 -1.84,69.238 h 35.32 l 1.84,-44.023 h 1.36 c 10.08,29.805 34.86,48.613 61.91,48.613 4.12,0 7.34,-0.445 11.01,-0.918 v -38.066 c -4.13,0.918 -8.25,0.918 -13.76,0.918 -28.43,0 -48.61,-21.082 -54.11,-51.356 -0.92,-5.5 -1.38,-12.375 -1.38,-18.8 V 327.176 h -40.35 v 152.695" /></g></g><g
         id="g62"><g
           clip-path="url(#clipPath68)"
           id="g64"><path
             id="path76"
             style="fill:url(#linearGradient74);fill-opacity:1;fill-rule:nonzero;stroke:none"
             d="m 1436.13,327.176 v 221.933 h 40.36 V 327.176 Z m 44.95,284.297 c 0,-13.75 -9.62,-24.754 -25.66,-24.754 -14.68,0 -24.32,11.004 -24.32,24.754 0,13.769 10.1,25.215 25.22,25.215 14.68,0 24.76,-10.997 24.76,-25.215" /></g></g><g
         id="g78"><g
           clip-path="url(#clipPath84)"
           id="g80"><path
             id="path92"
             style="fill:url(#linearGradient90);fill-opacity:1;fill-rule:nonzero;stroke:none"
             d="m 1701.65,334.969 c -10.54,-5.059 -33.94,-12.832 -63.72,-12.832 -66.96,0 -110.52,45.39 -110.52,113.254 0,68.328 46.77,118.308 119.22,118.308 23.84,0 44.94,-5.957 55.94,-11.922 l -9.16,-30.722 c -9.63,5.039 -24.78,10.535 -46.78,10.535 -50.92,0 -78.41,-38.043 -78.41,-83.906 0,-51.368 33,-83.008 77.01,-83.008 22.94,0 38.09,5.508 49.55,10.558 l 6.87,-30.265" /></g></g><g
         id="g94"><g
           clip-path="url(#clipPath100)"
           id="g96"><path
             id="path108"
             style="fill:url(#linearGradient106);fill-opacity:1;fill-rule:nonzero;stroke:none"
             d="m 1865.81,440.43 c -44.01,0.925 -93.99,-6.883 -93.99,-49.992 0,-26.59 17.41,-38.504 37.6,-38.504 29.33,0 48.15,18.347 54.58,37.136 1.35,4.59 1.81,9.172 1.81,12.832 z m 38.98,-60.071 c 0,-19.246 0.94,-38.062 3.24,-53.183 h -36.23 l -3.24,27.953 h -1.37 c -12.38,-17.414 -36.2,-32.992 -67.85,-32.992 -44.94,0 -67.88,31.621 -67.88,63.722 0,53.653 47.69,83.008 133.44,82.547 v 4.59 c 0,17.871 -5.05,51.359 -50.44,50.899 -21.1,0 -42.64,-5.965 -58.22,-16.504 l -9.17,27.05 c 18.33,11.465 45.39,19.258 73.35,19.258 67.87,0 84.37,-46.308 84.37,-90.332 v -83.008" /></g></g><g
         id="g110"><g
           clip-path="url(#clipPath116)"
           id="g112"><path
             id="path124"
             style="fill:url(#linearGradient122);fill-opacity:1;fill-rule:nonzero;stroke:none"
             d="m 1969.92,489.031 c 0,23.399 -0.92,41.739 -1.83,60.078 h 35.31 l 1.83,-36.23 h 1.37 c 12.4,21.094 33.03,40.82 70.17,40.82 29.81,0 52.72,-18.34 62.37,-44.48 h 0.92 c 6.85,12.84 16.04,22.011 25.2,28.894 13.32,10.078 27.53,15.586 48.64,15.586 29.78,0 73.37,-19.258 73.37,-96.308 V 327.176 h -39.47 v 125.176 c 0,43.109 -16.03,68.32 -48.14,68.32 -23.37,0 -40.81,-16.953 -48.15,-36.219 -1.82,-5.957 -3.2,-12.844 -3.2,-20.176 V 327.176 h -39.43 v 132.969 c 0,35.316 -15.61,60.527 -46.32,60.527 -24.77,0 -43.56,-20.176 -50,-40.34 -2.29,-5.508 -3.2,-12.844 -3.2,-19.727 V 327.176 h -39.44 v 161.855" /></g></g><g
         id="g126"><g
           clip-path="url(#clipPath132)"
           id="g128"><path
             id="path140"
             style="fill:url(#linearGradient138);fill-opacity:1;fill-rule:nonzero;stroke:none"
             d="m 179.336,377.375 c -4.801,16.637 -7.992,33.953 -9.418,51.902 -5.172,65.125 14.125,126.571 50.145,175.282 L 404.547,509.48 179.336,377.375" /></g></g><g
         id="g142"><g
           clip-path="url(#clipPath148)"
           id="g144"><path
             id="path156"
             style="fill:url(#linearGradient154);fill-opacity:1;fill-rule:nonzero;stroke:none"
             d="m 247.336,634.227 c 12.129,12.324 25.687,23.613 40.602,33.632 54.257,36.426 117.261,49.739 177.378,42.207 l 7.672,-208.964 -225.652,133.125" /></g></g><g
         id="g158"><g
           clip-path="url(#clipPath164)"
           id="g160"><path
             id="path172"
             style="fill:url(#linearGradient170);fill-opacity:1;fill-rule:nonzero;stroke:none"
             d="m 501.484,702.969 c 16.754,-4.344 33.313,-10.442 49.45,-18.352 58.671,-28.75 101.703,-76.656 125.242,-132.5 L 502.305,443.848 501.484,702.969" /></g></g><g
         id="g174"><g
           clip-path="url(#clipPath180)"
           id="g176"><path
             id="path188"
             style="fill:url(#linearGradient186);fill-opacity:1;fill-rule:nonzero;stroke:none"
             d="m 688.598,514.52 c 4.5,-16.719 7.343,-34.122 8.433,-52.071 3.914,-65.215 -16.523,-126.277 -53.453,-174.297 L 456.504,384.277 688.598,514.52" /></g></g><g
         id="g190"><g
           clip-path="url(#clipPath196)"
           id="g192"><path
             id="path204"
             style="fill:url(#linearGradient202);fill-opacity:1;fill-rule:nonzero;stroke:none"
             d="M 621.5,261.922 C 609.438,249.531 595.93,238.145 581.07,228.066 527.031,191.328 464.109,177.684 403.945,184.891 L 394.781,390.781 621.5,261.922" /></g></g><g
         id="g206"><g
           clip-path="url(#clipPath212)"
           id="g208"><path
             id="path220"
             style="fill:url(#linearGradient218);fill-opacity:1;fill-rule:nonzero;stroke:none"
             d="m 365.375,192.137 c -16.762,4.297 -33.344,10.332 -49.508,18.183 -58.765,28.547 -101.965,76.309 -125.687,132.055 l 175.484,115.918 -0.289,-266.156" /></g></g></g></g></svg>